<?xml version="1.0" standalone="no"?>
<svg
  width="600"
  height="600"
  viewBox="0 0 600 600"
  xmlns="http://www.w3.org/2000/svg"
>
  <g transform="translate(300,300)">
    <path d="M107.6,-149.6C142.8,-144.9,176.9,-120.6,201.7,-86.3C226.5,-51.9,241.9,-7.5,227.1,26.3C212.4,60,167.4,83.1,136.2,116.7C105,150.4,87.6,194.6,60.4,200C33.2,205.3,-3.7,171.7,-32.5,146.8C-61.3,121.8,-82,105.4,-120.5,88.9C-158.9,72.4,-215.1,55.7,-228.9,26.7C-242.7,-2.3,-214.1,-43.5,-181.9,-70.2C-149.7,-96.9,-113.8,-109,-82.8,-115.7C-51.9,-122.4,-26,-123.7,5.1,-131.7C36.2,-139.7,72.4,-154.4,107.6,-149.6Z" fill="#2b5e4e" />
  </g>
</svg>
    