<?xml version="1.0" standalone="no"?>
<svg
  width="600"
  height="600"
  viewBox="0 0 600 600"
  xmlns="http://www.w3.org/2000/svg"
>
  <g transform="translate(300,300)">
    <path d="M136.4,-213.5C172.7,-189,195,-144.1,211.4,-99.2C227.7,-54.3,238.1,-9.3,222.9,25.5C207.7,60.3,167,84.8,135.2,111.6C103.4,138.5,80.6,167.6,47.4,190.8C14.2,214,-29.4,231.2,-63,219.2C-96.5,207.1,-120.1,165.8,-147.2,130C-174.3,94.2,-204.9,64.1,-215.2,27.7C-225.6,-8.7,-215.6,-51.3,-191.4,-80.4C-167.1,-109.4,-128.7,-125,-94.5,-150.3C-60.2,-175.7,-30.1,-210.8,10,-226.4C50.1,-242,100.2,-237.9,136.4,-213.5Z" fill="#2b5f4e" />
  </g>
</svg>
    