<?xml version="1.0" standalone="no"?>
<svg
  width="600"
  height="600"
  viewBox="0 0 600 600"
  xmlns="http://www.w3.org/2000/svg"
>
  <g transform="translate(300,300)">
    <path d="M111.3,-105.4C147.5,-102.2,182.6,-70.3,173.1,-42.6C163.6,-14.9,109.5,8.5,82.7,41.1C56,73.6,56.6,115.3,39,132.8C21.4,150.4,-14.3,143.8,-61.7,139.5C-109.2,135.3,-168.5,133.4,-205.8,102.5C-243.1,71.6,-258.4,11.7,-237.6,-30.7C-216.8,-73,-159.8,-97.8,-114.2,-99.4C-68.6,-101,-34.3,-79.5,1.6,-81.4C37.5,-83.4,75,-108.7,111.3,-105.4Z" fill="#ea3f33" />
  </g>
</svg>
    