<?xml version="1.0" standalone="no"?>
<svg
  width="600"
  height="600"
  viewBox="0 0 600 600"
  xmlns="http://www.w3.org/2000/svg"
>
  <g transform="translate(300,300)">
    <path d="M149.5,-167.7C187.6,-146.2,208,-93.2,210.9,-42.3C213.8,8.6,199.1,57.6,177.2,108.6C155.2,159.6,126,212.8,79.8,237.5C33.6,262.2,-29.5,258.4,-69.3,227.8C-109.1,197.1,-125.6,139.6,-145.3,90.9C-164.9,42.3,-187.8,2.6,-178.3,-28C-168.8,-58.5,-126.8,-79.8,-91.7,-101.8C-56.6,-123.7,-28.3,-146.4,13.7,-162.7C55.7,-179.1,111.4,-189.1,149.5,-167.7Z" fill="#ea3f33" />
  </g>
</svg>
    