<?xml version="1.0" standalone="no"?>
<svg
  width="600"
  height="600"
  viewBox="0 0 600 600"
  xmlns="http://www.w3.org/2000/svg"
>
  <g transform="translate(300,300)">
    <path d="M95.8,-142.6C119.9,-133.6,132.3,-99.8,156.3,-65.9C180.2,-32,215.8,2.1,205.6,25.1C195.3,48.1,139.2,60.1,108.4,91.6C77.5,123.2,71.8,174.3,49.5,191.1C27.2,207.9,-11.7,190.3,-58.5,183.7C-105.4,177.1,-160,181.6,-186,157.7C-212,133.9,-209.5,81.8,-218.7,30.3C-228,-21.3,-249.1,-72.3,-222.8,-90.1C-196.5,-107.8,-122.9,-92.2,-77.8,-91.6C-32.8,-91,-16.4,-105.5,9.7,-120.7C35.9,-135.8,71.7,-151.6,95.8,-142.6Z" fill="#2b5f4e" />
  </g>
</svg>
    