<?xml version="1.0" standalone="no"?>
<svg
  width="600"
  height="600"
  viewBox="0 0 600 600"
  xmlns="http://www.w3.org/2000/svg"
>
  <g transform="translate(300,300)">
    <path d="M132,-180.2C171.2,-153.3,203,-114.8,225.5,-68C247.9,-21.2,260.9,33.9,231,59.3C201,84.7,128.1,80.4,82.5,105.5C36.8,130.7,18.4,185.3,-16.5,208C-51.3,230.7,-102.7,221.3,-143.1,194.4C-183.5,167.6,-213,123.2,-206.2,81.7C-199.4,40.3,-156.3,1.8,-135.6,-38.5C-114.8,-78.7,-116.5,-120.7,-97.6,-154.2C-78.8,-187.7,-39.4,-212.9,3.5,-217.7C46.4,-222.6,92.9,-207.2,132,-180.2Z" fill="#ea3f33" />
  </g>
</svg>
    