<?xml version="1.0" standalone="no"?>
<svg
  width="600"
  height="600"
  viewBox="0 0 600 600"
  xmlns="http://www.w3.org/2000/svg"
>
  <g transform="translate(300,300)">
    <path d="M76.1,-97.6C118.7,-91.1,187.2,-103.9,216.1,-85.5C245,-67.1,234.3,-17.5,214.9,22.1C195.5,61.6,167.3,91.1,143.7,132.2C120,173.4,101,226.3,64.1,253.1C27.1,279.9,-27.7,280.5,-55.3,246.1C-83,211.7,-83.4,142.2,-90.8,98.4C-98.2,54.5,-112.4,36.4,-114.4,17C-116.3,-2.4,-105.9,-23,-100.5,-50.4C-95,-77.9,-94.6,-112.1,-78.6,-130.9C-62.7,-149.6,-31.4,-152.8,-7.3,-141.4C16.8,-130.1,33.5,-104.2,76.1,-97.6Z" fill="#ea3f33" />
  </g>
</svg>
    