<?xml version="1.0" standalone="no"?>
<svg
  width="600"
  height="600"
  viewBox="0 0 600 600"
  xmlns="http://www.w3.org/2000/svg"
>
  <g transform="translate(300,300)">
    <path d="M103.4,-145.2C141.9,-136.1,186.5,-120.8,213.5,-89.4C240.5,-57.9,249.9,-10.3,242.5,34.2C235.1,78.8,210.9,120.3,180.1,156.3C149.2,192.3,111.8,222.8,73.2,221.4C34.6,220,-5.3,186.8,-47.6,170.5C-90,154.3,-134.9,155.1,-175.9,136.5C-216.9,117.9,-254,79.8,-257.6,38.5C-261.3,-2.8,-231.6,-47.5,-203.9,-86.8C-176.1,-126,-150.2,-159.7,-116.6,-171C-82.9,-182.3,-41.4,-171.2,-4.5,-164.2C32.4,-157.1,64.9,-154.3,103.4,-145.2Z" fill="#e66b9a" />
  </g>
</svg>
    